<?xml version="1.0" standalone="no"?>
<!DOCTYPE svg PUBLIC "-//W3C//DTD SVG 20010904//EN"
 "http://www.w3.org/TR/2001/REC-SVG-20010904/DTD/svg10.dtd">
<svg version="1.0" xmlns="http://www.w3.org/2000/svg"
 width="700.000000pt" height="700.000000pt" viewBox="0 0 700.000000 700.000000"
 preserveAspectRatio="xMidYMid meet">
<metadata>
Created by potrace 1.11, written by Peter Selinger 2001-2013
</metadata>
<g transform="translate(0.000000,700.000000) scale(0.100000,-0.100000)"
fill="#000000" stroke="none">
<path d="M2228 6995 c-2 -1 -25 -5 -53 -9 -637 -77 -1172 -503 -1390 -1105
-34 -96 -63 -199 -72 -256 -2 -16 -9 -55 -15 -85 -7 -35 -12 -283 -13 -675 -3
-638 -6 -716 -30 -820 -69 -295 -233 -514 -518 -692 -29 -18 -56 -34 -62 -36
-11 -4 54 -97 110 -158 55 -60 146 -137 227 -193 64 -44 238 -136 286 -151 18
-5 -3 -16 -103 -50 -173 -60 -286 -129 -383 -234 -76 -84 -157 -233 -181 -336
-6 -27 -14 -61 -17 -75 -9 -38 -10 -1201 -1 -1207 4 -2 759 -4 1677 -4 l1670
0 -24 -48 -25 -48 218 -217 218 -218 129 64 129 65 40 -24 c126 -77 373 -177
486 -198 l37 -7 44 -136 45 -137 309 -3 309 -2 45 137 45 137 65 16 c134 34
315 110 458 192 l43 25 128 -64 128 -64 194 194 c107 107 204 206 217 220 l24
25 -65 125 -65 125 25 43 c83 144 140 278 183 429 l27 95 134 45 134 45 0 309
0 310 -125 40 c-69 23 -130 45 -136 49 -10 5 -43 112 -35 112 1 0 -12 38 -29
84 -32 88 -112 259 -153 326 l-24 40 65 129 64 129 -218 218 -217 217 -129
-64 -129 -64 -67 39 c-125 72 -293 142 -428 176 l-71 18 -32 101 c-18 56 -39
117 -47 137 l-16 36 -303 0 -304 0 -46 -138 c-26 -77 -49 -139 -51 -139 -13 0
-171 -43 -179 -49 -5 -4 -30 -13 -53 -20 -50 -14 -45 -18 -110 89 -76 127
-122 262 -147 434 -4 23 -8 309 -10 636 -1 327 -5 604 -8 615 -2 11 -7 41 -11
66 -31 212 -112 438 -223 617 -266 432 -687 717 -1178 799 -75 12 -407 27
-417 18z m382 -240 c148 -21 366 -99 505 -183 304 -182 539 -473 650 -805 53
-158 74 -307 76 -532 1 -172 2 -161 -18 -143 -27 23 -141 77 -177 83 l-31 6 0
120 0 119 -1240 -2 -1240 -3 -2 -100 c-1 -55 -2 -107 -2 -116 -1 -10 -18 -21
-44 -29 -50 -15 -135 -56 -159 -78 -21 -18 -20 -27 -18 178 2 128 2 141 15
245 20 172 102 400 199 555 320 512 879 771 1486 685z m775 -2010 c0 -500 -1
-516 -49 -658 -107 -317 -351 -555 -671 -652 -114 -34 -126 -36 -265 -40 -288
-8 -538 92 -740 294 -151 151 -244 328 -284 541 -11 57 -15 180 -16 520 l-1
445 1013 0 1013 0 0 -450z m-2251 -119 l1 -314 -45 23 c-61 31 -115 87 -148
154 -23 48 -27 69 -27 141 0 105 29 176 99 241 42 40 105 80 115 72 2 -1 4
-144 5 -317z m2564 276 c53 -38 83 -74 110 -132 37 -78 38 -202 2 -275 -32
-66 -90 -128 -149 -158 l-47 -25 1 318 0 317 25 -10 c14 -6 40 -21 58 -35z
m160 -724 c1 -13 5 -37 23 -118 25 -115 90 -271 162 -389 41 -68 42 -66 -15
-97 -27 -14 -33 -12 -156 50 l-129 64 -216 -216 -216 -217 60 -119 c33 -65 58
-120 56 -123 -3 -2 -89 24 -191 58 l-186 63 0 110 c0 61 4 116 8 122 4 6 32
29 62 51 190 140 342 350 425 586 15 43 30 76 32 73 14 -14 194 55 243 94 29
23 36 24 38 8z m-2917 -16 c36 -27 139 -70 186 -78 51 -8 57 -14 76 -79 31
-105 127 -279 213 -385 46 -56 168 -172 227 -215 l55 -40 -1 -116 0 -116 -281
-93 c-154 -51 -285 -93 -291 -93 -12 0 -98 12 -136 18 -76 13 -216 62 -307
107 -95 46 -249 150 -267 178 -4 7 8 24 31 43 167 137 316 353 389 569 31 88
63 241 65 306 0 17 13 15 41 -6z m4209 -441 c20 -62 43 -117 52 -122 8 -4 30
-11 49 -14 195 -34 423 -127 599 -244 l65 -43 114 57 113 57 103 -102 102
-102 -58 -112 -58 -111 51 -80 c28 -44 71 -119 94 -166 41 -82 118 -279 109
-279 -3 0 0 -12 6 -26 5 -15 12 -42 15 -60 3 -19 11 -53 17 -76 l12 -41 120
-41 120 -41 0 -137 c0 -76 -5 -142 -10 -147 -6 -4 -60 -25 -121 -45 l-111 -37
-27 -115 c-52 -220 -124 -385 -252 -573 l-23 -34 58 -114 58 -113 -99 -100
c-54 -55 -103 -100 -109 -100 -5 0 -58 24 -117 54 l-108 54 -50 -33 c-103 -69
-256 -148 -363 -186 -61 -22 -260 -73 -303 -78 -3 -1 -25 -56 -47 -124 l-41
-122 -142 0 -143 0 -40 121 -40 121 -97 22 c-54 12 -101 22 -105 23 -5 0 -51
16 -103 35 -115 42 -238 103 -344 171 l-80 50 -107 -54 c-59 -30 -113 -53
-120 -53 -8 1 -56 45 -107 99 l-93 97 57 116 c52 106 56 118 43 134 -53 63
-156 255 -200 374 -31 87 -79 265 -79 298 0 26 -5 29 -135 72 l-110 36 -3 146
-3 145 118 39 c64 22 120 46 124 54 4 8 17 59 30 114 35 158 113 354 180 453
16 24 29 45 29 48 0 3 14 25 30 49 l30 44 -57 116 -56 117 101 101 102 101
114 -57 114 -57 94 59 c166 104 325 170 508 211 52 12 102 25 110 29 8 5 32
61 53 125 l38 117 147 -3 146 -3 36 -114z m-3189 -482 c19 -6 43 -14 54 -19
11 -5 49 -15 85 -24 206 -48 463 -34 681 37 l46 15 -1 -74 -1 -75 -206 -207
c-114 -114 -216 -215 -226 -225 -20 -17 -26 -12 -244 207 l-225 224 0 76 c0
42 0 76 1 76 1 0 17 -5 36 -11z m38 -534 c118 -118 213 -217 210 -220 -27 -31
-374 -375 -378 -375 -5 0 -388 609 -418 664 -11 22 -7 24 170 83 100 34 187
62 192 62 6 0 106 -96 224 -214z m1146 159 c93 -31 174 -60 178 -64 4 -3 -8
-42 -26 -86 -19 -43 -47 -125 -62 -181 l-29 -103 -137 -45 -138 -46 2 -85 c1
-46 1 -84 -1 -84 -2 0 -83 66 -179 148 -96 81 -183 153 -194 161 -19 13 -8 26
193 228 117 117 215 213 218 213 3 0 81 -25 175 -56z m-1815 -384 c73 -118
147 -237 165 -265 18 -27 63 -99 100 -160 37 -60 87 -139 110 -175 23 -36 50
-80 60 -97 11 -18 22 -33 25 -33 3 0 136 130 295 290 160 159 293 290 296 290
3 0 129 -104 279 -230 l274 -230 1 -72 0 -72 133 -44 c105 -34 135 -49 141
-65 5 -12 27 -80 50 -152 23 -71 64 -174 91 -228 28 -54 50 -100 50 -101 0 -1
-524 -2 -1163 -2 -959 1 -1167 3 -1180 14 -35 29 -93 131 -119 206 -65 193
-15 410 131 568 l64 69 1 131 c1 71 -3 132 -7 135 -8 5 -40 6 -154 4 l-63 -1
0 -86 0 -85 -51 -62 c-62 -77 -131 -217 -155 -317 -35 -149 -20 -339 40 -480
15 -36 30 -72 32 -80 5 -14 -26 -16 -271 -16 l-276 -1 2 476 c1 471 2 477 25
548 53 164 160 287 305 354 26 12 524 180 604 204 16 4 24 -8 165 -235z"/>
<path d="M1765 4956 c-79 -35 -86 -149 -13 -195 50 -31 133 -7 156 45 44 96
-48 193 -143 150z"/>
<path d="M2910 4963 c-50 -9 -90 -70 -82 -125 9 -58 81 -105 137 -89 96 26
111 162 24 207 -28 14 -35 15 -79 7z"/>
<path d="M1928 4133 c23 -236 234 -415 471 -400 226 14 397 179 424 410 l5 37
-114 0 c-63 0 -114 -3 -115 -7 -8 -94 -52 -160 -129 -195 -81 -37 -179 -23
-249 37 -28 23 -71 110 -71 143 0 22 -2 22 -113 22 l-114 0 5 -47z"/>
<path d="M4830 3379 c-324 -39 -592 -167 -816 -389 -254 -251 -395 -587 -397
-945 -1 -190 23 -328 87 -493 44 -115 72 -169 138 -267 208 -310 497 -502 873
-579 92 -19 136 -23 265 -20 85 1 169 5 185 8 17 4 55 11 85 17 355 71 692
315 884 643 59 100 113 230 140 338 34 132 39 175 41 333 3 263 -57 482 -193
710 -133 221 -340 407 -582 523 -68 33 -230 88 -284 97 -17 3 -38 8 -46 10
-62 17 -290 25 -380 14z m325 -235 c328 -53 636 -272 800 -569 56 -101 107
-246 120 -342 3 -21 8 -51 11 -66 9 -46 6 -238 -5 -308 -48 -292 -209 -557
-451 -736 -145 -108 -344 -187 -524 -208 -68 -8 -258 -9 -284 -1 -9 3 -33 7
-53 10 -95 14 -235 63 -339 119 -196 105 -374 290 -474 493 -37 76 -84 210
-92 264 -3 19 -10 55 -14 80 -9 46 -6 290 4 345 12 69 59 215 92 285 215 458
705 714 1209 634z"/>
<path d="M4969 2724 c-3 -9 -5 -22 -13 -67 -4 -27 -9 -59 -12 -70 -2 -12 -9
-51 -15 -87 -16 -102 -19 -121 -29 -180 -5 -30 -12 -68 -14 -85 -10 -63 -17
-102 -26 -155 -5 -30 -12 -68 -14 -85 -3 -16 -12 -73 -21 -125 -9 -52 -18
-108 -21 -125 -2 -16 -9 -55 -14 -85 -5 -30 -12 -73 -15 -95 -4 -22 -8 -47
-10 -55 -2 -8 -7 -37 -11 -65 -3 -27 -7 -54 -8 -59 -1 -9 82 -29 170 -40 l51
-6 6 37 c4 21 9 56 12 78 4 22 22 132 41 245 19 113 37 219 40 235 2 17 6 41
9 55 3 14 7 39 9 55 3 17 10 62 16 100 7 39 13 79 15 90 16 106 36 225 40 245
3 14 8 45 11 70 3 25 10 65 15 89 7 31 7 46 -1 51 -6 4 -50 13 -98 20 -48 8
-93 15 -99 16 -7 1 -14 0 -14 -2z"/>
<path d="M4282 2297 l-264 -264 262 -261 c144 -144 264 -262 268 -262 4 0 41
34 83 76 l76 76 -185 185 -185 185 182 182 c99 100 181 186 181 191 0 10 -140
155 -150 155 -3 0 -124 -119 -268 -263z"/>
<path d="M5302 2484 c-65 -66 -72 -77 -60 -91 7 -10 88 -92 181 -185 92 -92
167 -171 167 -175 0 -4 -82 -90 -182 -190 l-183 -183 75 -75 c41 -41 79 -75
84 -75 10 0 526 511 526 522 0 9 -520 528 -529 527 -3 0 -39 -34 -79 -75z"/>
</g>
</svg>
